<?xml version="1.0" encoding="UTF-8" standalone="no"?>
<!DOCTYPE svg PUBLIC "-//W3C//DTD SVG 1.1//EN"
 "http://www.w3.org/Graphics/SVG/1.1/DTD/svg11.dtd">
<!-- Generated by graphviz version 2.49.3 (0)
 -->
<!-- Title: G Pages: 1 -->
<svg width="336pt" height="116pt"
 viewBox="0.00 0.00 336.00 116.00" xmlns="http://www.w3.org/2000/svg" xmlns:xlink="http://www.w3.org/1999/xlink">
<g id="graph0" class="graph" transform="scale(1 1) rotate(0) translate(4 112)">
<title>G</title>
<polygon fill="white" stroke="transparent" points="-4,4 -4,-112 332,-112 332,4 -4,4"/>
<!-- b -->
<g id="node1" class="node">
<title>b</title>
<ellipse fill="yellow" stroke="black" cx="155" cy="-90" rx="18" ry="18"/>
<text text-anchor="middle" x="155" y="-81.9" font-family="Times,serif" font-size="32.00" fill="blue">a very long label</text>
</g>
<!-- d -->
<g id="node2" class="node">
<title>d</title>
<ellipse fill="lightgrey" stroke="black" cx="128" cy="-18" rx="18" ry="18"/>
<text text-anchor="middle" x="128" y="-9.9" font-family="Times,serif" font-size="32.00" fill="blue">an even longer label</text>
</g>
<!-- b&#45;&gt;d -->
<g id="edge3" class="edge">
<title>b&#45;&gt;d</title>
<path fill="none" stroke="black" d="M148.74,-72.76C145.5,-64.37 141.47,-53.93 137.83,-44.5"/>
<polygon fill="black" stroke="black" points="141.09,-43.22 134.23,-35.15 134.56,-45.74 141.09,-43.22"/>
</g>
<!-- c -->
<g id="node4" class="node">
<title>c</title>
<ellipse fill="none" stroke="black" cx="301" cy="-18" rx="27" ry="18"/>
<text text-anchor="middle" x="301" y="-14.3" font-family="Times,serif" font-size="14.00">c</text>
</g>
<!-- b&#45;&gt;c -->
<g id="edge4" class="edge">
<title>b&#45;&gt;c</title>
<path fill="none" stroke="black" d="M170.9,-81.38C194.64,-69.99 239.81,-48.34 270.16,-33.78"/>
<polygon fill="black" stroke="black" points="271.95,-36.81 279.45,-29.33 268.92,-30.5 271.95,-36.81"/>
</g>
<!-- a -->
<g id="node3" class="node">
<title>a</title>
<ellipse fill="none" stroke="black" cx="273" cy="-90" rx="27" ry="18"/>
<text text-anchor="middle" x="273" y="-86.3" font-family="Times,serif" font-size="14.00">a</text>
</g>
<!-- a&#45;&gt;d -->
<g id="edge1" class="edge">
<title>a&#45;&gt;d</title>
<path fill="none" stroke="black" d="M251.6,-78.67C225.39,-66.02 181.04,-44.6 153.2,-31.17"/>
<polygon fill="black" stroke="black" points="154.62,-27.97 144.1,-26.77 151.58,-34.27 154.62,-27.97"/>
</g>
<!-- a&#45;&gt;c -->
<g id="edge2" class="edge">
<title>a&#45;&gt;c</title>
<path fill="none" stroke="black" d="M279.64,-72.41C282.91,-64.22 286.94,-54.14 290.62,-44.95"/>
<polygon fill="black" stroke="black" points="293.95,-46.05 294.41,-35.47 287.45,-43.45 293.95,-46.05"/>
</g>
</g>
</svg>
