<?xml version="1.0" encoding="UTF-8" standalone="no"?>
<!DOCTYPE svg PUBLIC "-//W3C//DTD SVG 1.1//EN"
 "http://www.w3.org/Graphics/SVG/1.1/DTD/svg11.dtd">
<!-- Generated by graphviz version 2.49.3 (0)
 -->
<!-- Title: structs Pages: 1 -->
<svg width="170pt" height="228pt"
 viewBox="0.00 0.00 170.00 227.50" xmlns="http://www.w3.org/2000/svg" xmlns:xlink="http://www.w3.org/1999/xlink">
<g id="graph0" class="graph" transform="scale(1 1) rotate(0) translate(4 223.5)">
<title>structs</title>
<polygon fill="white" stroke="transparent" points="-4,4 -4,-223.5 166,-223.5 166,4 -4,4"/>
<!-- struct1 -->
<g id="node1" class="node">
<title>struct1</title>
<polygon fill="none" stroke="black" points="0,-121.5 0,-190.5 59,-190.5 59,-121.5 0,-121.5"/>
<text text-anchor="middle" x="29.5" y="-175.3" font-family="Times,serif" font-size="14.00">left</text>
<polyline fill="none" stroke="black" points="0,-167.5 59,-167.5 "/>
<text text-anchor="middle" x="29.5" y="-152.3" font-family="Times,serif" font-size="14.00">mid dle</text>
<polyline fill="none" stroke="black" points="0,-144.5 59,-144.5 "/>
<text text-anchor="middle" x="29.5" y="-129.3" font-family="Times,serif" font-size="14.00">right</text>
</g>
<!-- struct2 -->
<g id="node2" class="node">
<title>struct2</title>
<polygon fill="none" stroke="black" points="101.5,-173 101.5,-219 155.5,-219 155.5,-173 101.5,-173"/>
<text text-anchor="middle" x="128.5" y="-203.8" font-family="Times,serif" font-size="14.00">one</text>
<polyline fill="none" stroke="black" points="101.5,-196 155.5,-196 "/>
<text text-anchor="middle" x="128.5" y="-180.8" font-family="Times,serif" font-size="14.00">two</text>
</g>
<!-- struct1&#45;&gt;struct2 -->
<g id="edge1" class="edge">
<title>struct1:f1&#45;&gt;struct2:f0</title>
<path fill="none" stroke="black" d="M59,-156C84.41,-156 74.96,-194.4 90.56,-205.2"/>
<polygon fill="black" stroke="black" points="89.93,-208.66 100.5,-208 91.82,-201.92 89.93,-208.66"/>
</g>
<!-- struct3 -->
<g id="node3" class="node">
<title>struct3</title>
<polygon fill="none" stroke="black" points="95,-0.5 95,-153.5 162,-153.5 162,-0.5 95,-0.5"/>
<text text-anchor="middle" x="128.5" y="-138.3" font-family="Times,serif" font-size="14.00">hello</text>
<text text-anchor="middle" x="128.5" y="-123.3" font-family="Times,serif" font-size="14.00">world</text>
<polyline fill="none" stroke="black" points="95,-115.5 162,-115.5 "/>
<text text-anchor="middle" x="106.5" y="-77.3" font-family="Times,serif" font-size="14.00">b</text>
<polyline fill="none" stroke="black" points="118,-46.5 118,-115.5 "/>
<text text-anchor="middle" x="129.5" y="-100.3" font-family="Times,serif" font-size="14.00">c</text>
<polyline fill="none" stroke="black" points="118,-92.5 141,-92.5 "/>
<text text-anchor="middle" x="129.5" y="-77.3" font-family="Times,serif" font-size="14.00">d</text>
<polyline fill="none" stroke="black" points="118,-69.5 141,-69.5 "/>
<text text-anchor="middle" x="129.5" y="-54.3" font-family="Times,serif" font-size="14.00">e</text>
<polyline fill="none" stroke="black" points="141,-46.5 141,-115.5 "/>
<text text-anchor="middle" x="151.5" y="-77.3" font-family="Times,serif" font-size="14.00">f</text>
<polyline fill="none" stroke="black" points="95,-46.5 162,-46.5 "/>
<text text-anchor="middle" x="128.5" y="-31.3" font-family="Times,serif" font-size="14.00">g</text>
<polyline fill="none" stroke="black" points="95,-23.5 162,-23.5 "/>
<text text-anchor="middle" x="128.5" y="-8.3" font-family="Times,serif" font-size="14.00">h</text>
</g>
<!-- struct1&#45;&gt;struct3 -->
<g id="edge2" class="edge">
<title>struct1:f2&#45;&gt;struct3:here</title>
<path fill="none" stroke="black" d="M59,-133C70.7,-133 93.79,-114.22 110.36,-99.24"/>
<polygon fill="black" stroke="black" points="112.92,-101.64 117.9,-92.28 108.18,-96.49 112.92,-101.64"/>
</g>
</g>
</svg>
