<?xml version="1.0" encoding="UTF-8" standalone="no"?>
<!DOCTYPE svg PUBLIC "-//W3C//DTD SVG 1.1//EN"
 "http://www.w3.org/Graphics/SVG/1.1/DTD/svg11.dtd">
<!-- Generated by graphviz version 2.49.3 (0)
 -->
<!-- Title: structs Pages: 1 -->
<svg width="183pt" height="185pt"
 viewBox="0.00 0.00 183.00 185.00" xmlns="http://www.w3.org/2000/svg" xmlns:xlink="http://www.w3.org/1999/xlink">
<g id="graph0" class="graph" transform="scale(1 1) rotate(0) translate(4 181)">
<title>structs</title>
<polygon fill="white" stroke="transparent" points="-4,4 -4,-181 179,-181 179,4 -4,4"/>
<!-- tnode -->
<g id="node1" class="node">
<title>tnode</title>
<path fill="none" stroke="black" d="M12,-65.5C12,-65.5 59,-65.5 59,-65.5 65,-65.5 71,-71.5 71,-77.5 71,-77.5 71,-99.5 71,-99.5 71,-105.5 65,-111.5 59,-111.5 59,-111.5 12,-111.5 12,-111.5 6,-111.5 0,-105.5 0,-99.5 0,-99.5 0,-77.5 0,-77.5 0,-71.5 6,-65.5 12,-65.5"/>
<text text-anchor="middle" x="35.5" y="-96.3" font-family="Times,serif" font-size="14.00">TEUTON</text>
<polyline fill="none" stroke="black" points="0,-88.5 71,-88.5 "/>
<text text-anchor="middle" x="35.5" y="-73.3" font-family="Times,serif" font-size="14.00">Teacher</text>
</g>
<!-- snode1 -->
<g id="node2" class="node">
<title>snode1</title>
<path fill="none" stroke="black" d="M119,-130.5C119,-130.5 163,-130.5 163,-130.5 169,-130.5 175,-136.5 175,-142.5 175,-142.5 175,-164.5 175,-164.5 175,-170.5 169,-176.5 163,-176.5 163,-176.5 119,-176.5 119,-176.5 113,-176.5 107,-170.5 107,-164.5 107,-164.5 107,-142.5 107,-142.5 107,-136.5 113,-130.5 119,-130.5"/>
<text text-anchor="middle" x="141" y="-161.3" font-family="Times,serif" font-size="14.00">SSH</text>
<polyline fill="none" stroke="black" points="107,-153.5 175,-153.5 "/>
<text text-anchor="middle" x="141" y="-138.3" font-family="Times,serif" font-size="14.00">Student.1</text>
</g>
<!-- tnode&#45;&#45;snode1 -->
<g id="edge1" class="edge">
<title>tnode:rol&#45;&#45;snode1:rol</title>
<path fill="none" stroke="black" d="M71,-100.5C104.02,-100.5 73.98,-165.5 107,-165.5"/>
</g>
<!-- snode2 -->
<g id="node3" class="node">
<title>snode2</title>
<path fill="none" stroke="black" d="M119,-65.5C119,-65.5 163,-65.5 163,-65.5 169,-65.5 175,-71.5 175,-77.5 175,-77.5 175,-99.5 175,-99.5 175,-105.5 169,-111.5 163,-111.5 163,-111.5 119,-111.5 119,-111.5 113,-111.5 107,-105.5 107,-99.5 107,-99.5 107,-77.5 107,-77.5 107,-71.5 113,-65.5 119,-65.5"/>
<text text-anchor="middle" x="141" y="-96.3" font-family="Times,serif" font-size="14.00">SSH</text>
<polyline fill="none" stroke="black" points="107,-88.5 175,-88.5 "/>
<text text-anchor="middle" x="141" y="-73.3" font-family="Times,serif" font-size="14.00">Student.2</text>
</g>
<!-- tnode&#45;&#45;snode2 -->
<g id="edge2" class="edge">
<title>tnode:rol&#45;&#45;snode2:rol</title>
<path fill="none" stroke="black" d="M71,-100.5C87,-100.5 91,-100.5 107,-100.5"/>
</g>
<!-- snode3 -->
<g id="node4" class="node">
<title>snode3</title>
<path fill="none" stroke="black" d="M119,-0.5C119,-0.5 163,-0.5 163,-0.5 169,-0.5 175,-6.5 175,-12.5 175,-12.5 175,-34.5 175,-34.5 175,-40.5 169,-46.5 163,-46.5 163,-46.5 119,-46.5 119,-46.5 113,-46.5 107,-40.5 107,-34.5 107,-34.5 107,-12.5 107,-12.5 107,-6.5 113,-0.5 119,-0.5"/>
<text text-anchor="middle" x="141" y="-31.3" font-family="Times,serif" font-size="14.00">SSH</text>
<polyline fill="none" stroke="black" points="107,-23.5 175,-23.5 "/>
<text text-anchor="middle" x="141" y="-8.3" font-family="Times,serif" font-size="14.00">Student.3</text>
</g>
<!-- tnode&#45;&#45;snode3 -->
<g id="edge3" class="edge">
<title>tnode:rol&#45;&#45;snode3:rol</title>
<path fill="none" stroke="black" d="M71,-100.5C104.02,-100.5 73.98,-35.5 107,-35.5"/>
</g>
</g>
</svg>
