<?xml version="1.0" encoding="UTF-8" standalone="no"?>
<!DOCTYPE svg PUBLIC "-//W3C//DTD SVG 1.1//EN"
 "http://www.w3.org/Graphics/SVG/1.1/DTD/svg11.dtd">
<!-- Generated by graphviz version 2.49.3 (0)
 -->
<!-- Title: structs Pages: 1 -->
<svg width="171pt" height="185pt"
 viewBox="0.00 0.00 171.00 185.00" xmlns="http://www.w3.org/2000/svg" xmlns:xlink="http://www.w3.org/1999/xlink">
<g id="graph0" class="graph" transform="scale(1 1) rotate(0) translate(4 181)">
<title>structs</title>
<polygon fill="white" stroke="transparent" points="-4,4 -4,-181 167,-181 167,4 -4,4"/>
<!-- tnode -->
<g id="node1" class="node">
<title>tnode</title>
<path fill="none" stroke="black" d="M12,-65.5C12,-65.5 47,-65.5 47,-65.5 53,-65.5 59,-71.5 59,-77.5 59,-77.5 59,-99.5 59,-99.5 59,-105.5 53,-111.5 47,-111.5 47,-111.5 12,-111.5 12,-111.5 6,-111.5 0,-105.5 0,-99.5 0,-99.5 0,-77.5 0,-77.5 0,-71.5 6,-65.5 12,-65.5"/>
<text text-anchor="middle" x="29.5" y="-96.3" font-family="Times,serif" font-size="14.00">T&#45;Node</text>
<polyline fill="none" stroke="black" points="0,-88.5 59,-88.5 "/>
<text text-anchor="middle" x="29.5" y="-73.3" font-family="Times,serif" font-size="14.00">Teacher</text>
</g>
<!-- snode1 -->
<g id="node2" class="node">
<title>snode1</title>
<path fill="none" stroke="black" d="M107,-130.5C107,-130.5 151,-130.5 151,-130.5 157,-130.5 163,-136.5 163,-142.5 163,-142.5 163,-164.5 163,-164.5 163,-170.5 157,-176.5 151,-176.5 151,-176.5 107,-176.5 107,-176.5 101,-176.5 95,-170.5 95,-164.5 95,-164.5 95,-142.5 95,-142.5 95,-136.5 101,-130.5 107,-130.5"/>
<text text-anchor="middle" x="129" y="-161.3" font-family="Times,serif" font-size="14.00">S&#45;Node</text>
<polyline fill="none" stroke="black" points="95,-153.5 163,-153.5 "/>
<text text-anchor="middle" x="129" y="-138.3" font-family="Times,serif" font-size="14.00">Student.1</text>
</g>
<!-- tnode&#45;&#45;snode1 -->
<g id="edge1" class="edge">
<title>tnode:rol&#45;&#45;snode1:rol</title>
<path fill="none" stroke="black" d="M59,-100.5C92.02,-100.5 61.98,-165.5 95,-165.5"/>
</g>
<!-- snode2 -->
<g id="node3" class="node">
<title>snode2</title>
<path fill="none" stroke="black" d="M107,-65.5C107,-65.5 151,-65.5 151,-65.5 157,-65.5 163,-71.5 163,-77.5 163,-77.5 163,-99.5 163,-99.5 163,-105.5 157,-111.5 151,-111.5 151,-111.5 107,-111.5 107,-111.5 101,-111.5 95,-105.5 95,-99.5 95,-99.5 95,-77.5 95,-77.5 95,-71.5 101,-65.5 107,-65.5"/>
<text text-anchor="middle" x="129" y="-96.3" font-family="Times,serif" font-size="14.00">S&#45;Node</text>
<polyline fill="none" stroke="black" points="95,-88.5 163,-88.5 "/>
<text text-anchor="middle" x="129" y="-73.3" font-family="Times,serif" font-size="14.00">Student.2</text>
</g>
<!-- tnode&#45;&#45;snode2 -->
<g id="edge2" class="edge">
<title>tnode:rol&#45;&#45;snode2:rol</title>
<path fill="none" stroke="black" d="M59,-100.5C75,-100.5 79,-100.5 95,-100.5"/>
</g>
<!-- snode3 -->
<g id="node4" class="node">
<title>snode3</title>
<path fill="none" stroke="black" d="M107,-0.5C107,-0.5 151,-0.5 151,-0.5 157,-0.5 163,-6.5 163,-12.5 163,-12.5 163,-34.5 163,-34.5 163,-40.5 157,-46.5 151,-46.5 151,-46.5 107,-46.5 107,-46.5 101,-46.5 95,-40.5 95,-34.5 95,-34.5 95,-12.5 95,-12.5 95,-6.5 101,-0.5 107,-0.5"/>
<text text-anchor="middle" x="129" y="-31.3" font-family="Times,serif" font-size="14.00">S&#45;Node</text>
<polyline fill="none" stroke="black" points="95,-23.5 163,-23.5 "/>
<text text-anchor="middle" x="129" y="-8.3" font-family="Times,serif" font-size="14.00">Student.3</text>
</g>
<!-- tnode&#45;&#45;snode3 -->
<g id="edge3" class="edge">
<title>tnode:rol&#45;&#45;snode3:rol</title>
<path fill="none" stroke="black" d="M59,-100.5C92.02,-100.5 61.98,-35.5 95,-35.5"/>
</g>
</g>
</svg>
